<svg version="1.2" xmlns="http://www.w3.org/2000/svg" viewBox="-276 -232.00000000000006 1264.0000000000002 1262.0000000000002" width="1265" height="1264"><style>.a{fill:none;stroke:#0e7906;stroke-linejoin:round;stroke-width:50}.b{fill:none;stroke:#067079;stroke-linecap:round;stroke-linejoin:round;stroke-width:50}.c{fill:none;stroke:#d94a0b;stroke-linejoin:round;stroke-width:80}</style><path class="a" d="m72 57.2l575.7 575.6c5.4 5.5 9.7 11.9 12.6 18.9 3 7.1 4.5 14.7 4.5 22.3 0 7.7-1.5 15.3-4.5 22.3-2.9 7.1-7.2 13.5-12.6 18.9-5.4 5.4-11.8 9.7-18.9 12.6-7.1 3-14.6 4.5-22.3 4.5-7.6 0-15.2-1.5-22.3-4.5-7-2.9-13.5-7.2-18.9-12.6l-140.6-143q-3.4-3.5-6.1-7.6-2.7-4-4.5-8.5-1.9-4.5-2.8-9.3-1-4.8-1-9.7v-8.6q0-5-0.9-9.8-1-4.9-2.9-9.5-1.9-4.6-4.7-8.7-2.8-4.1-6.3-7.6l-18.2-16.8c-3.1-2.8-6.5-5.2-10.2-7.2-3.6-2-7.5-3.5-11.6-4.5-4-1-8.2-1.5-12.4-1.5-4.2 0-8.3 0.5-12.4 1.6-6.3 1.7-12.9 2.5-19.5 2.5-6.6-0.1-13.1-1-19.5-2.7-6.3-1.7-12.4-4.2-18.1-7.5-5.7-3.3-11-7.4-15.6-12l-133.5-133.5c-79.2-79.2-108.3-198.8-52.5-254.1z"/><path class="b" d="m607.2 32.6l-120.7 120.7c-4.6 4.6-8.8 9.7-12.4 15.1-3.7 5.5-6.8 11.3-9.3 17.3-2.5 6.1-4.4 12.4-5.7 18.8-1.2 6.4-1.9 13-1.9 19.5v23.2q0 2.5-0.5 4.9-0.5 2.4-1.4 4.7-0.9 2.3-2.3 4.3-1.4 2.1-3.1 3.8l-17.7 17.7"/><path class="b" d="m482.2 332.6l17.7-17.7q1.7-1.7 3.8-3.1 2-1.4 4.3-2.3 2.3-1 4.7-1.4 2.4-0.5 4.9-0.5h23.2c6.5 0 13.1-0.7 19.5-1.9 6.4-1.3 12.7-3.2 18.8-5.7 6-2.5 11.8-5.6 17.3-9.3 5.4-3.6 10.5-7.8 15.1-12.4l120.7-120.7"/><path class="b" d="m669.7 95.1l-125 125"/><path class="b" d="m294.7 557.6l-155.8 156.7c-5.8 5.8-12.7 10.4-20.3 13.5-7.6 3.2-15.7 4.8-23.9 4.8-8.2 0-16.3-1.6-23.9-4.8-7.6-3.1-14.5-7.7-20.3-13.5-5.8-5.8-10.4-12.7-13.5-20.3-3.2-7.6-4.8-15.7-4.8-23.9 0-8.2 1.6-16.3 4.8-23.9 3.1-7.6 7.7-14.5 13.5-20.3l131.7-130.8"/><path fill-rule="evenodd" class="c" d="m355.2 989.5c-326.4 0-590.2-263.9-590.2-590.3 0-326.4 263.8-590.2 590.2-590.2 326.4 0 590.3 263.8 590.3 590.2 0 326.4-263.9 590.3-590.3 590.3z"/></svg>